<svg width="611" height="369" viewBox="0 0 611 369" fill="none" xmlns="http://www.w3.org/2000/svg">
<path d="M144.144 96.1208H259.362V105.279H154.705V174.203H253.121V183.36H154.705V259.032H260.563V268.19H144.144L144.144 96.1208ZM269.684 96.1208H281.926L336.175 171.793L391.624 96.1208L467.044 0L343.136 179.746L406.987 268.19H394.264L336.175 187.698L277.845 268.19H265.363L329.694 179.746L269.684 96.1208ZM411.547 105.279V96.1208H542.849V105.279H482.359V268.19H471.797V105.279H411.547ZM0 96.1208H13.2022L195.252 368.541L120.02 268.19L11.0418 109.134L10.5617 268.19H0V96.1208ZM541.785 256.269C541.024 256.28 540.278 256.065 539.64 255.651C539.002 255.236 538.502 254.642 538.203 253.942C537.904 253.243 537.82 252.47 537.962 251.723C538.103 250.976 538.464 250.288 538.997 249.746C539.531 249.204 540.214 248.834 540.959 248.681C541.704 248.529 542.478 248.601 543.182 248.89C543.885 249.178 544.487 249.669 544.911 250.301C545.335 250.932 545.561 251.676 545.561 252.436C545.574 252.938 545.486 253.438 545.302 253.906C545.118 254.373 544.841 254.798 544.488 255.156C544.136 255.514 543.715 255.797 543.25 255.988C542.785 256.179 542.287 256.275 541.785 256.269V256.269ZM552.163 246.186H557.814C557.891 249.247 560.126 251.304 563.414 251.304C567.088 251.304 569.169 249.092 569.169 244.951V218.715H574.923V244.977C574.923 252.436 570.607 256.732 563.466 256.732C556.761 256.732 552.163 252.565 552.163 246.186V246.186ZM582.45 245.851H588.152C588.64 249.375 592.083 251.613 597.041 251.613C601.665 251.613 605.055 249.221 605.055 245.928C605.055 243.099 602.898 241.401 597.991 240.244L593.213 239.086C586.508 237.517 583.451 234.276 583.451 228.823C583.451 222.213 588.846 217.814 596.938 217.814C604.465 217.814 609.962 222.213 610.296 228.463H604.696C604.156 225.042 601.176 222.907 596.861 222.907C592.314 222.907 589.283 225.094 589.283 228.438C589.283 231.087 591.235 232.604 596.064 233.736L600.149 234.739C607.753 236.514 610.887 239.601 610.887 245.183C610.887 252.282 605.389 256.732 596.604 256.732C588.384 256.732 582.861 252.488 582.45 245.851V245.851Z" fill="white"/>
</svg>
